<svg width="522" height="16" viewBox="0 0 522 16" fill="none" xmlns="http://www.w3.org/2000/svg">
<path d="M1 7C0.447715 7 4.82823e-08 7.44772 0 8C-4.82823e-08 8.55228 0.447715 9 1 9L1 7ZM521.707 8.70715C522.098 8.31663 522.098 7.68346 521.707 7.29294L515.343 0.928977C514.953 0.538453 514.319 0.538453 513.929 0.928977C513.538 1.3195 513.538 1.95267 513.929 2.34319L519.586 8.00005L513.929 13.6569C513.538 14.0474 513.538 14.6806 513.929 15.0711C514.319 15.4616 514.953 15.4616 515.343 15.0711L521.707 8.70715ZM1 9L521 9.00005L521 7.00005L1 7L1 9Z" fill="#E6E6E6"/>
</svg>
